<svg width="523" height="421" viewBox="0 0 523 421" fill="none" xmlns="http://www.w3.org/2000/svg">
<path fill-rule="evenodd" clip-rule="evenodd" d="M248.257 162.44C248.971 161.663 249.674 160.892 250.363 160.135C252.668 157.659 255.018 155.226 257.367 152.793C259.716 150.36 262.066 147.927 264.372 145.452C266.177 143.528 268.135 141.716 270.086 139.911C272.318 137.844 274.541 135.787 276.513 133.584C278.238 131.602 280.118 129.77 281.999 127.939C282.939 127.023 283.879 126.108 284.799 125.173C287.295 122.325 290.084 119.762 292.873 117.198C293.802 116.344 294.732 115.49 295.651 114.625C296.568 113.802 297.1 113.976 297.787 114.988C298.813 116.672 299.477 118.519 299.962 120.363C301.487 125.507 303.334 130.507 305.181 135.507C306.104 138.007 307.028 140.507 307.911 143.025C308.679 145.372 309.773 147.622 310.857 149.85C311.168 150.489 311.478 151.127 311.78 151.765C312.07 152.342 312.262 152.917 312.454 153.492C312.71 154.26 312.966 155.027 313.455 155.797C314.312 157.145 315.022 157.322 316.476 156.506C317.568 155.852 318.665 155.031 319.408 154.039C324.043 148.253 328.678 142.467 333.318 136.514C334.619 134.777 335.922 132.998 337.224 131.219C338.526 129.441 339.829 127.662 341.13 125.925C341.84 125.01 342.559 124.096 343.279 123.18C345.944 119.789 348.626 116.377 350.979 112.857C352.936 110.043 354.982 107.271 357.028 104.5C359.074 101.729 361.12 98.9577 363.077 96.1436C364.752 93.8271 366.606 91.5131 368.46 89.1991L368.46 89.198C368.53 89.0745 368.625 88.9514 368.727 88.8197C368.898 88.5977 369.088 88.3515 369.209 88.0384C370.178 85.3781 372.032 83.0637 374.06 80.9188C376.197 78.5311 377.965 75.9638 379.765 73.3485C380.455 72.3469 381.15 71.3382 381.871 70.3299C384.175 67.0565 386.715 64.013 389.299 60.9166C389.85 60.2553 390.404 59.5916 390.958 58.9227C392.069 57.601 393.199 56.2981 394.329 54.9951C396.588 52.3891 398.848 49.783 400.953 47.0264C404.294 42.7269 407.81 38.5968 411.504 34.4692L418.732 25.5433C419.448 24.6714 420.121 23.7989 420.787 22.9336C422.017 21.3387 423.227 19.7682 424.661 18.271C425.214 17.6936 425.724 17.0321 426.235 16.3706C426.745 15.709 427.256 15.0475 427.809 14.4701C431.506 10.1771 435.382 5.88641 439.258 1.59575L439.263 1.59076C439.634 1.09448 440.006 0.598192 441.084 0.445501C441.519 1.31051 441.167 2.16503 440.814 3.01955C440.755 3.16202 440.697 3.30449 440.642 3.44703C438.93 6.82086 437.616 10.4841 436.329 14.0753C435.906 15.2536 435.486 16.4242 435.056 17.5742C434.969 17.8085 434.883 18.0435 434.796 18.279C433.524 21.7205 432.209 25.2795 430.275 28.5376C428.652 31.5337 427.555 34.6603 426.415 37.91C426.229 38.4387 426.042 38.9706 425.852 39.5058C425.838 40.0069 425.64 40.6726 425.269 41.1689C424.126 43.3304 423.213 45.5674 422.298 47.8094C421.247 50.3856 420.193 52.9685 418.784 55.4512C417.979 56.8702 417.371 58.4168 416.758 59.9737C416.369 60.9638 415.977 61.958 415.533 62.9263C414.484 65.2513 413.478 67.6187 412.472 69.986C411.466 72.3536 410.46 74.7212 409.411 77.0464C408.602 79.0077 407.761 80.9686 406.914 82.9419C405.753 85.6497 404.581 88.3809 403.468 91.1688C402.979 92.262 402.514 93.3779 402.046 94.4997C401.234 96.4457 400.415 98.4097 399.454 100.305C399.449 100.472 399.357 100.596 399.264 100.72C399.171 100.844 399.078 100.968 399.073 101.135C397.998 104.379 396.657 107.535 395.316 110.692C393.975 113.848 392.633 117.005 391.558 120.249C390.838 122.564 389.641 124.784 388.456 126.979C388.023 127.782 387.592 128.58 387.187 129.38C385.756 132.535 384.238 135.648 382.719 138.76C381.2 141.873 379.682 144.985 378.251 148.14C376.722 151.629 375.014 155.115 373.127 158.598C370.285 164.239 367.265 169.878 364.245 175.517L364.242 175.522L364.242 175.522C363.292 177.514 362.341 179.506 361.574 181.334C360.473 183.995 359.351 186.656 358.229 189.32C354.655 197.797 351.072 206.298 348.107 214.904C346.343 220.394 344.225 225.712 342.108 231.031C340.635 234.623 339.333 238.298 338.023 241.998C337.454 243.604 336.883 245.215 336.297 246.826C334.942 250.482 333.409 254.136 331.875 257.789L331.873 257.794C330.918 259.953 330.142 262.115 329.544 264.279C328.981 266.318 328.144 268.241 327.309 270.159C326.371 272.312 325.438 274.457 324.9 276.748C324.505 278.079 323.935 279.241 323.003 280.565C320.775 278.153 319.559 275.329 318.369 272.565C317.89 271.453 317.415 270.351 316.881 269.289C315.739 267.022 314.802 264.632 313.861 262.231C313.266 260.714 312.67 259.193 312.019 257.696C311.679 256.939 311.339 256.185 311 255.435C309.158 251.355 307.353 247.357 305.807 243.244L300.286 229.637C298.775 226.109 297.801 222.587 297.006 219.068C296.816 218.274 296.459 217.505 296.1 216.731C295.549 215.542 294.992 214.341 295.029 213.026C295.046 212.42 294.661 212.114 294.112 212.112C292.595 213.648 291.06 215.164 289.526 216.68C285.14 221.013 280.766 225.334 276.863 230.047C275.856 231.217 274.693 232.236 273.515 233.268C272.866 233.837 272.213 234.41 271.578 235.014C270.56 236.076 269.559 237.156 268.559 238.236C267.221 239.68 265.884 241.125 264.502 242.526C263.707 243.299 262.957 244.115 262.203 244.935C261.331 245.883 260.455 246.837 259.497 247.735L258.445 248.848C256.972 250.332 255.683 251.651 254.388 253.138C254.384 253.143 254.379 253.148 254.374 253.153C254.308 253.241 254.243 253.329 254.178 253.416C252.694 255.397 250.82 257.152 248.972 258.881C248.959 258.894 248.945 258.906 248.932 258.919C248.218 259.695 247.515 260.466 246.826 261.224C244.521 263.699 242.171 266.132 239.822 268.565C237.473 270.999 235.123 273.432 232.817 275.907C231.012 277.83 229.053 279.643 227.103 281.448C224.87 283.515 222.648 285.572 220.676 287.775C218.951 289.757 217.071 291.588 215.19 293.42C214.25 294.335 213.31 295.251 212.39 296.185C209.894 299.034 207.105 301.597 204.316 304.16C203.386 305.014 202.457 305.869 201.538 306.733C200.621 307.557 200.089 307.382 199.402 306.371C198.376 304.686 197.712 302.84 197.227 300.995C195.702 295.851 193.855 290.851 192.008 285.852C191.085 283.352 190.161 280.852 189.278 278.334C188.51 275.987 187.416 273.736 186.332 271.509C186.021 270.869 185.711 270.231 185.409 269.594C185.119 269.017 184.927 268.442 184.735 267.866C184.479 267.099 184.223 266.332 183.734 265.562C182.877 264.214 182.167 264.037 180.713 264.853C179.621 265.507 178.524 266.328 177.781 267.32C173.146 273.106 168.511 278.892 163.871 284.845C162.57 286.582 161.267 288.36 159.965 290.139C158.663 291.918 157.361 293.697 156.059 295.434C155.349 296.348 154.63 297.263 153.91 298.179C151.245 301.569 148.563 304.981 146.21 308.502C144.253 311.316 142.207 314.087 140.161 316.858C138.115 319.629 136.07 322.401 134.112 325.215C132.437 327.532 130.583 329.846 128.729 332.161C128.658 332.284 128.564 332.407 128.462 332.539C128.291 332.761 128.101 333.007 127.98 333.32C127.011 335.981 125.157 338.295 123.129 340.44C120.992 342.828 119.224 345.395 117.423 348.01C116.734 349.012 116.039 350.02 115.317 351.029C113.014 354.302 110.474 357.346 107.89 360.442C107.339 361.103 106.785 361.767 106.231 362.436C105.12 363.758 103.99 365.061 102.86 366.364C100.6 368.97 98.3406 371.576 96.2356 374.332C92.8946 378.632 89.3794 382.762 85.6854 386.889L78.4574 395.815C77.7408 396.687 77.0684 397.56 76.4015 398.425C75.1724 400.02 73.962 401.59 72.5282 403.088C71.9753 403.665 71.4647 404.327 70.9541 404.988C70.4435 405.65 69.933 406.311 69.3801 406.889C65.6825 411.182 61.8062 415.473 57.9298 419.764L57.9263 419.768L57.9263 419.768C57.5545 420.264 57.1828 420.76 56.1051 420.913C55.6695 420.048 56.0221 419.194 56.3747 418.339C56.4335 418.197 56.4923 418.054 56.5475 417.912C58.2588 414.538 59.5725 410.874 60.8603 407.283C61.2829 406.105 61.7026 404.934 62.1327 403.784C62.2196 403.55 62.3064 403.315 62.3934 403.08C63.665 399.638 64.9801 396.079 66.9136 392.821C68.5365 389.825 69.6338 386.698 70.7743 383.448C70.9599 382.92 71.1465 382.388 71.3368 381.853C71.3509 381.352 71.5485 380.686 71.9203 380.19C73.0632 378.028 73.9759 375.791 74.8906 373.549C75.9417 370.973 76.9955 368.39 78.4046 365.907C79.21 364.488 79.8184 362.942 80.431 361.385C80.8205 360.395 81.2116 359.401 81.6561 358.432C82.7054 356.107 83.7112 353.74 84.717 351.372C85.7228 349.005 86.7286 346.637 87.778 344.312C88.5872 342.351 89.4282 340.39 90.2746 338.417C91.4361 335.709 92.6077 332.978 93.721 330.19C94.2097 329.097 94.6751 327.981 95.1429 326.859C95.9546 324.913 96.7737 322.949 97.7348 321.054C97.7395 320.887 97.8324 320.763 97.9254 320.639C98.0184 320.515 98.1113 320.391 98.116 320.224C99.1912 316.98 100.532 313.823 101.873 310.667C103.214 307.51 104.555 304.354 105.631 301.11C106.351 298.794 107.548 296.575 108.733 294.379C109.166 293.577 109.597 292.778 110.002 291.979C111.433 288.823 112.951 285.711 114.47 282.598C115.989 279.486 117.507 276.374 118.938 273.218C120.467 269.73 122.175 266.244 124.062 262.761C126.905 257.118 129.926 251.477 132.947 245.837C133.897 243.845 134.848 241.853 135.615 240.025C136.716 237.363 137.838 234.702 138.96 232.039C142.534 223.561 146.117 215.06 149.082 206.455C150.846 200.965 152.964 195.646 155.081 190.328C156.554 186.736 157.856 183.06 159.166 179.36C159.735 177.754 160.306 176.144 160.892 174.533C162.247 170.877 163.78 167.224 165.313 163.571L165.316 163.565C166.271 161.406 167.047 159.244 167.645 157.08C168.208 155.041 169.045 153.117 169.88 151.2C170.818 149.047 171.751 146.901 172.289 144.611C172.684 143.279 173.254 142.118 174.185 140.793C176.414 143.206 177.63 146.03 178.82 148.793C179.299 149.905 179.774 151.008 180.308 152.069C181.45 154.337 182.387 156.727 183.328 159.127C183.923 160.645 184.519 162.166 185.17 163.663C185.51 164.42 185.85 165.174 186.189 165.925C188.031 170.005 189.836 174.002 191.382 178.114L196.903 191.721C198.414 195.25 199.388 198.772 200.183 202.291C200.373 203.084 200.73 203.854 201.089 204.628C201.64 205.817 202.197 207.017 202.16 208.332C202.143 208.939 202.528 209.245 203.076 209.247C204.594 207.711 206.129 206.194 207.663 204.679C212.049 200.345 216.423 196.024 220.326 191.312C221.333 190.142 222.496 189.123 223.674 188.09C224.323 187.522 224.976 186.949 225.611 186.345C226.629 185.283 227.63 184.202 228.63 183.122C229.968 181.678 231.305 180.234 232.686 178.832C233.482 178.06 234.232 177.244 234.986 176.423C235.858 175.475 236.734 174.522 237.692 173.624L238.744 172.511C240.217 171.027 241.506 169.707 242.8 168.221C242.805 168.216 242.81 168.211 242.815 168.206C242.881 168.118 242.946 168.03 243.011 167.943C244.495 165.961 246.369 164.207 248.217 162.477C248.23 162.465 248.244 162.453 248.257 162.44Z" fill="#FFF270"/>
<g clip-path="url(#clip0_381_266)">
<path d="M52.1924 148.227H83.5688C90.2998 148.227 95.3013 149.853 98.7603 152.653C102.488 155.732 104.405 159.891 104.405 165.038C104.405 171.463 101.039 175.529 95.313 177.702V177.969C102.406 180.142 106.952 186.102 106.952 193.793C106.952 200.299 104.592 205.004 100.315 208.257C96.4933 211.243 91.1295 212.87 84.305 212.87H52.1924V148.227ZM81.2082 173.821C85.8475 173.821 89.026 171.556 89.026 167.315C89.026 163.075 86.0228 160.89 81.29 160.89H68.0968V173.821H81.1965H81.2082ZM82.482 200.043C87.7523 200.043 91.036 197.058 91.036 192.445C91.036 187.287 87.2147 184.673 82.3067 184.673H68.1201V200.043H82.4937H82.482Z" fill="#1E251A"/>
<path d="M112.315 166.584H126.502V173.822H126.771C130.043 168.303 133.864 165.863 139.508 165.863C140.876 165.863 141.787 165.956 142.418 166.223V178.887H142.056C132.964 177.621 127.145 182.047 127.145 192.085V212.882H112.315V166.584Z" fill="#1E251A"/>
<path d="M147.151 148.227H161.981V160.158H147.151V148.227ZM147.151 166.583H161.981V212.881H147.151V166.583Z" fill="#1E251A"/>
<path d="M166.981 189.738C166.981 175.274 175.348 165.236 187.361 165.236C193.906 165.236 197.633 167.954 200.368 171.835H200.637V148.227H215.466V212.881H201.279V206.643H201.092C198.276 211.441 193.45 214.334 187.361 214.334C175.442 214.334 166.981 205.202 166.981 189.738ZM200.999 189.738C200.999 181.966 197.82 176.354 191.358 176.354C185.445 176.354 181.986 181.78 181.986 189.552C181.986 197.325 185.445 202.669 191.171 202.669C197.353 202.669 200.999 197.336 200.999 189.738Z" fill="#1E251A"/>
<path d="M221.473 213.973H235.846C236.664 216.413 239.118 218.493 244.026 218.493C250.302 218.493 252.943 215.24 252.943 209.628V205.016H252.58C249.858 208.095 246.305 210.348 240.661 210.348C230.202 210.348 220.468 202.576 220.468 188.379C220.468 174.181 228.473 165.224 240.018 165.224C246.2 165.224 250.383 167.663 253.118 171.556H253.305V166.583H267.491V208.362C267.491 215.321 265.037 220.387 261.31 223.733C257.22 227.346 251.12 228.891 244.213 228.891C231.394 228.891 222.933 223.651 221.473 213.973ZM253.585 187.844C253.585 181.605 250.313 176.365 244.132 176.365C238.581 176.365 234.946 180.885 234.946 187.937C234.946 194.989 238.581 199.416 244.132 199.416C250.594 199.416 253.585 194.35 253.585 187.844Z" fill="#1E251A"/>
<path d="M274.597 148.227H289.426V160.158H274.597V148.227ZM274.597 166.583H289.426V212.881H274.597V166.583Z" fill="#1E251A"/>
<path d="M296.52 166.583H310.8V172.915H311.068C314.527 167.942 318.98 165.224 325.442 165.224C335.632 165.224 341.627 172.462 341.627 182.767V212.881H326.797V185.753C326.797 180.873 324.343 177.527 319.517 177.527C314.691 177.527 311.337 181.594 311.337 187.298V212.893H296.508V166.583H296.52Z" fill="#1E251A"/>
<path d="M347.27 213.973H361.643C362.461 216.413 364.915 218.493 369.823 218.493C376.098 218.493 378.739 215.24 378.739 209.628V205.016H378.377C375.654 208.095 372.102 210.348 366.458 210.348C355.999 210.348 346.265 202.576 346.265 188.379C346.265 174.181 354.269 165.224 365.815 165.224C371.997 165.224 376.18 167.663 378.915 171.556H379.102V166.583H393.288V208.362C393.288 215.321 390.834 220.387 387.107 223.733C383.016 227.346 376.916 228.891 370.01 228.891C357.191 228.891 348.73 223.651 347.27 213.973ZM379.382 187.844C379.382 181.605 376.11 176.365 369.928 176.365C364.378 176.365 360.743 180.885 360.743 187.937C360.743 194.989 364.378 199.416 369.928 199.416C376.391 199.416 379.382 194.35 379.382 187.844Z" fill="#1E251A"/>
<path d="M142.207 274.632V255.601H137.475V248.538H142.207V237.326H153.274V248.538H159.748V255.601H153.274V272.215C153.274 274.981 154.805 275.678 157.247 275.678C158.217 275.678 159.339 275.608 159.748 275.608V283.845C158.778 284.124 156.616 284.403 153.554 284.403C146.94 284.403 142.207 282.253 142.207 274.644V274.632Z" fill="#1E251A"/>
<path d="M163.862 234.492H175.209V252.907H175.42C177.99 249.514 181.064 247.504 185.995 247.504C193.79 247.504 198.382 253.046 198.382 260.935V283.985H187.035V263.224C187.035 259.483 185.154 256.927 181.461 256.927C177.768 256.927 175.197 260.04 175.197 264.397V283.985H163.851V234.504L163.862 234.492Z" fill="#1E251A"/>
<path d="M201.934 266.186C201.934 255.602 209.377 247.504 220.245 247.504C225.329 247.504 229.36 249.165 232.422 251.93C236.664 255.811 238.756 261.968 238.685 269.16H213.07C213.771 273.935 216.412 276.909 221.075 276.909C224.066 276.909 226.018 275.597 226.988 273.377H238.054C237.283 276.561 235.203 279.605 232.071 281.754C229.08 283.834 225.457 285.007 220.935 285.007C209.167 285.007 201.934 276.909 201.934 266.186ZM227.198 262.445C226.778 258.227 224.137 255.52 220.444 255.52C216.132 255.52 213.9 258.216 213.14 262.445H227.198Z" fill="#1E251A"/>
<path d="M269.15 288.005C263.506 281.859 260.421 273.354 260.421 263.502C260.421 253.65 263.88 244.425 270.062 238.267C275.425 232.842 282.974 229.682 292.347 229.682C309.081 229.682 319.084 238.546 321.175 252.105H305.528C304.348 246.865 299.977 242.88 292.884 242.88C282.156 242.88 276.781 251.744 276.781 263.502C276.781 275.26 282.963 284.124 293.153 284.124C301.613 284.124 306.615 278.513 307.246 272.82V272.634H295.058V260.876H322.157V295.603H310.88L309.969 287.83H309.782C305.505 294.43 299.136 297.055 291.318 297.055C282.04 297.055 274.491 293.802 269.127 288.016L269.15 288.005Z" fill="#1E251A"/>
<path d="M326.913 282.672C326.913 272.459 335.093 269.381 344.734 268.114C353.463 267.034 356.56 266.128 356.56 262.956C356.56 259.97 354.655 257.983 350.191 257.983C345.458 257.983 343.098 260.063 342.642 263.955H329.005C329.367 255.369 336.005 248.038 350.109 248.038C357.109 248.038 361.842 249.304 365.207 251.837C369.204 254.73 371.12 259.25 371.12 265.035V288.365C371.12 292.071 371.483 294.15 372.757 294.964V295.591H358.383C357.658 294.592 357.203 292.791 356.84 290.433H356.653C353.931 294.325 349.829 296.765 342.829 296.765C333.551 296.765 326.913 291.792 326.913 282.66V282.672ZM356.934 279.058V273.54C355.029 274.539 352.295 275.259 349.291 275.98C343.565 277.246 341.193 278.698 341.193 282.219C341.193 285.925 343.916 287.377 347.562 287.377C353.113 287.377 356.934 284.031 356.934 279.058Z" fill="#1E251A"/>
<path d="M378.308 249.304H392.494V254.915H392.763C395.941 250.756 400.499 247.956 406.856 247.956C419.231 247.956 426.78 258.54 426.78 272.459C426.78 287.469 418.682 297.054 406.494 297.054C400.487 297.054 396.222 294.707 393.3 290.815H393.113V310.891H378.284V249.304H378.308ZM411.776 272.993C411.776 265.035 408.772 259.795 402.404 259.795C396.035 259.795 392.669 265.488 392.669 272.993C392.669 280.498 396.304 285.657 402.672 285.657C408.317 285.657 411.764 280.859 411.764 272.993H411.776Z" fill="#1E251A"/>
<path d="M430.636 163.365C430.66 163.551 430.683 163.783 430.718 163.992C431.022 165.398 431.139 166.792 430.94 168.268C430.578 171.126 430.52 174.019 430.368 176.912C430.309 178.05 430.274 179.189 430.239 180.327C430.204 181.698 430.157 183.069 430.449 184.417C430.508 184.696 430.508 185.021 430.508 185.323C430.52 186.775 430.508 188.216 430.543 189.668C430.555 190.505 430.625 191.341 430.683 192.178C430.718 192.782 430.812 193.386 430.823 193.99C430.858 196.058 431.127 198.08 431.244 200.125C431.314 201.414 431.443 202.704 431.454 203.993C431.49 205.98 431.84 211.266 431.934 213.241C431.969 213.822 432.389 216.89 432.868 217.773C433.301 218.702 433.955 222.792 433.219 223.396C432.74 223.756 432.436 223.791 431.922 223.93C431.443 224.058 430.975 224 430.52 223.779C430.169 223.616 429.807 223.465 429.48 223.245C428.919 222.861 428.556 222.246 428.498 221.316C428.428 220.259 428.358 219.19 428.276 218.133C428.194 216.924 428.101 215.705 428.019 214.496C427.984 213.962 427.949 213.439 427.914 212.905C427.832 211.313 427.75 209.721 427.668 208.118C427.645 207.514 427.633 206.898 427.622 206.294C427.598 204.156 427.563 202.03 427.353 199.915C427.294 199.311 427.294 198.696 427.259 198.091C427.201 197.034 427.131 195.965 427.072 194.908C427.037 194.223 426.99 193.537 426.955 192.863C426.874 190.656 426.78 188.46 426.722 186.253C426.663 183.964 426.652 181.687 426.628 179.398C426.617 178.259 426.628 177.109 426.628 175.971C426.628 175.436 426.617 174.89 426.675 174.379C426.862 172.799 426.862 171.195 426.944 169.604C427.037 167.861 427.142 166.118 427.271 164.376C427.306 163.841 427.4 163.33 427.481 162.807C427.586 162.18 427.692 161.634 428.299 161.552C428.907 161.471 430.052 161.692 430.613 163.376L430.636 163.365Z" fill="#1E251A"/>
<path d="M502.036 193.886C500.365 193.886 500.225 193.886 499.278 193.874C497.151 193.828 495.106 193.723 492.98 193.653C491.577 193.607 490.035 193.537 488.632 193.491C488.703 193.491 488.773 193.514 488.866 193.514C484.601 193.468 480.382 193.433 476.117 193.433C471.922 193.433 467.773 193.561 463.578 193.619C459.652 193.688 455.655 193.688 451.729 193.863C449.906 193.956 448.129 194.141 446.295 194.223C446.423 194.92 446.575 195.431 446.715 196.116C447.23 198.324 447.884 200.473 448.597 202.599C448.901 203.506 449.216 204.482 449.52 205.411C449.637 205.771 449.777 206.073 449.894 206.433C450.081 207.026 450.233 207.723 450.315 208.327C450.42 209.036 450.221 209.779 449.695 210.244C449.169 210.72 448.48 210.767 447.826 210.569C447.358 210.418 446.926 210.209 446.493 209.954C446.026 209.686 445.629 209.373 445.185 209.094C444.25 208.513 443.373 207.851 442.462 207.235C441.679 206.712 440.814 206.131 440.078 205.527C439.61 205.121 439.26 204.807 438.792 204.412C438.348 204.04 437.823 203.564 437.402 203.169C435.871 201.716 434.609 200.136 433.3 198.452C432.973 198.033 432.587 197.522 432.26 197.116C432.096 196.907 432.003 196.79 431.839 196.581C431.664 196.349 431.489 196.151 431.314 195.919C430.624 196.105 429.783 195.849 429.304 195.234C428.649 194.385 428.743 192.991 429.537 192.283C431.454 190.575 433.242 188.704 435.03 186.857C436.853 184.893 438.711 183.081 440.335 180.92C440.884 180.153 441.433 179.41 441.901 178.596C442.205 178.004 442.427 177.365 442.847 176.83C443.338 176.215 444.261 176.017 444.963 176.284C445.781 176.598 446.225 177.469 446.166 178.376C446.096 179.561 446.038 180.757 445.991 181.942C445.909 183.522 445.664 185.044 445.617 186.613C445.605 187.751 445.734 188.948 445.792 190.098C446.061 190.098 446.33 190.063 446.599 190.052C450.455 189.878 454.264 189.715 458.121 189.645C466.441 189.459 474.75 189.273 483.07 189.39C485.057 189.413 487.055 189.39 489.041 189.459C490.981 189.517 492.944 189.575 494.884 189.634C494.908 189.634 494.873 189.634 494.884 189.634C495.924 189.645 496.941 189.773 497.969 189.796C498.963 189.819 499.956 189.843 500.949 189.831C502.983 189.796 505.016 189.878 507.038 189.785C509.047 189.703 511.139 189.587 513.149 189.494C514.318 189.436 515.44 189.378 516.608 189.32C517.847 189.262 519.039 189.262 520.278 189.413C521.306 189.529 522.334 189.982 522.661 191.121C523.106 192.701 521.797 194.107 520.581 194.141C519.366 194.176 503.66 193.874 501.989 193.886H502.036ZM440.16 190.424C440.779 190.377 441.504 190.261 442.123 190.238C442.053 188.971 442.053 187.658 442.088 186.404C442.1 185.939 442.064 185.498 442.088 185.044C440.791 186.624 439.435 188.146 438.045 189.61C437.682 190.005 437.18 190.354 436.806 190.726C437.893 190.563 439.061 190.517 440.16 190.424ZM437.741 197.627C438.243 198.185 438.804 198.835 439.318 199.381C439.599 199.695 439.856 199.916 440.171 200.206C440.464 200.497 440.732 200.741 441.024 201.031C441.749 201.647 442.532 202.297 443.291 202.855C443.899 203.308 444.518 203.715 445.138 204.145C444.612 202.541 444.051 201.043 443.572 199.416C443.291 198.487 443.21 197.464 442.999 196.512C442.836 195.768 442.625 194.99 442.497 194.234C441.27 194.304 440.125 194.409 438.909 194.513C438.746 194.525 438.5 194.56 438.325 194.583C437.554 194.687 436.876 194.827 436.105 194.99C435.953 195.036 435.778 195.152 435.626 195.187C436.315 196.047 437.028 196.755 437.729 197.615L437.741 197.627Z" fill="#1E251A"/>
<path d="M92.6368 290.62C92.6134 290.434 92.59 290.201 92.555 289.992C92.2511 288.586 92.1343 287.192 92.3329 285.717C92.6952 282.859 92.7536 279.966 92.9055 277.073C92.964 275.934 92.999 274.796 93.0341 273.657C93.0691 272.286 93.1159 270.915 92.8237 269.567C92.7653 269.289 92.7653 268.963 92.7653 268.661C92.7536 267.209 92.7653 265.768 92.7302 264.316C92.7186 263.48 92.6484 262.643 92.59 261.807C92.555 261.202 92.4615 260.598 92.4498 259.994C92.4147 257.926 92.146 255.905 92.0291 253.86C91.959 252.57 91.8304 251.281 91.8188 249.991C91.7837 248.004 91.4331 242.718 91.3396 240.743C91.3046 240.162 90.8839 237.095 90.4048 236.212C89.9724 235.282 89.318 231.193 90.0542 230.589C90.5333 230.228 90.8371 230.194 91.3513 230.054C91.8304 229.926 92.2979 229.984 92.7536 230.205C93.1042 230.368 93.4665 230.519 93.7937 230.74C94.3546 231.123 94.7168 231.739 94.7753 232.668C94.8454 233.726 94.9155 234.794 94.9973 235.852C95.0791 237.06 95.1726 238.28 95.2544 239.488C95.2894 240.023 95.3245 240.545 95.3596 241.08C95.4414 242.671 95.5232 244.263 95.605 245.866C95.6283 246.471 95.64 247.086 95.6517 247.691C95.6751 249.828 95.7101 251.954 95.9205 254.069C95.9789 254.673 95.9789 255.289 96.014 255.893C96.0724 256.95 96.1425 258.019 96.2009 259.076C96.236 259.762 96.2827 260.447 96.3178 261.121C96.3996 263.329 96.4931 265.524 96.5515 267.732C96.6099 270.021 96.6216 272.298 96.645 274.586C96.6567 275.725 96.645 276.875 96.645 278.014C96.645 278.548 96.6567 279.094 96.5982 279.606C96.4113 281.186 96.4113 282.789 96.3295 284.381C96.236 286.123 96.1308 287.866 96.0023 289.609C95.9672 290.143 95.8737 290.654 95.7919 291.177C95.6868 291.805 95.5816 292.351 94.9739 292.432C94.3663 292.513 93.2211 292.293 92.6601 290.608L92.6368 290.62Z" fill="#1E251A"/>
<path d="M21.2247 260.098C22.8958 260.098 23.036 260.098 23.9826 260.11C26.1094 260.156 28.1544 260.261 30.2812 260.33C31.6835 260.377 33.2261 260.447 34.6284 260.493C34.5582 260.493 34.4881 260.47 34.3946 260.47C38.66 260.516 42.8785 260.551 47.1439 260.551C51.3391 260.551 55.4875 260.423 59.6827 260.365C63.6092 260.296 67.6057 260.296 71.5321 260.121C73.3551 260.028 75.1314 259.843 76.966 259.761C76.8375 259.064 76.6856 258.553 76.5453 257.867C76.0312 255.66 75.3768 253.511 74.6639 251.385C74.3601 250.478 74.0446 249.502 73.7407 248.573C73.6239 248.213 73.4837 247.911 73.3668 247.551C73.1798 246.958 73.0279 246.261 72.9461 245.657C72.8409 244.948 73.0396 244.205 73.5655 243.74C74.0913 243.263 74.7808 243.217 75.4352 243.414C75.9026 243.566 76.335 243.775 76.7674 244.03C77.2348 244.297 77.6321 244.611 78.0762 244.89C79.011 245.471 79.8875 246.133 80.799 246.749C81.5819 247.272 82.4467 247.853 83.1829 248.457C83.6503 248.863 84.0009 249.177 84.4683 249.572C84.9124 249.944 85.4382 250.42 85.8589 250.815C87.3898 252.267 88.6518 253.848 89.9606 255.532C90.2878 255.95 90.6735 256.462 91.0007 256.868C91.1643 257.077 91.2578 257.194 91.4214 257.403C91.5966 257.635 91.7719 257.833 91.9472 258.065C92.6367 257.879 93.4781 258.135 93.9572 258.75C94.6116 259.599 94.5181 260.993 93.7235 261.701C91.807 263.409 90.0191 265.28 88.2311 267.127C86.4082 269.091 84.5501 270.903 82.9258 273.064C82.3766 273.831 81.8273 274.574 81.3599 275.388C81.0561 275.98 80.834 276.619 80.4133 277.154C79.9225 277.769 78.9994 277.967 78.2982 277.7C77.4802 277.386 77.0361 276.515 77.0946 275.608C77.1647 274.423 77.2231 273.227 77.2699 272.042C77.3517 270.461 77.5971 268.94 77.6438 267.371C77.6555 266.232 77.5269 265.036 77.4685 263.886C77.1997 263.886 76.931 263.92 76.6622 263.932C72.8059 264.106 68.9963 264.269 65.14 264.339C56.8197 264.525 48.5111 264.711 40.1908 264.594C38.2042 264.571 36.2059 264.594 34.2194 264.525C32.2795 264.467 30.3163 264.408 28.3765 264.35C28.3881 264.35 28.3531 264.35 28.3765 264.35C27.3364 264.339 26.3198 264.211 25.2914 264.188C24.2981 264.164 23.3048 264.141 22.3115 264.153C20.2782 264.188 18.2449 264.106 16.2232 264.199C14.2133 264.281 12.1215 264.397 10.1115 264.49C8.94297 264.548 7.82113 264.606 6.65255 264.664C5.41385 264.722 4.2219 264.722 2.98321 264.571C1.95485 264.455 0.926504 264.002 0.599301 262.863C0.155241 261.283 1.46405 259.877 2.67937 259.843C3.8947 259.808 19.6004 260.11 21.2715 260.098H21.2247ZM83.1011 263.56C82.4817 263.607 81.7572 263.723 81.1379 263.746C81.208 265.013 81.208 266.325 81.1729 267.58C81.1612 268.045 81.1963 268.486 81.1729 268.94C82.47 267.359 83.8256 265.837 85.2162 264.374C85.5785 263.979 86.081 263.63 86.4549 263.258C85.3681 263.421 84.1995 263.467 83.1011 263.56ZM85.52 256.357C85.0175 255.799 84.4566 255.149 83.9425 254.603C83.662 254.289 83.4049 254.068 83.0894 253.778C82.7972 253.487 82.5285 253.243 82.2363 252.953C81.5118 252.337 80.7289 251.687 79.9693 251.129C79.3616 250.676 78.7423 250.269 78.1229 249.839C78.6488 251.443 79.2097 252.941 79.6888 254.568C79.9693 255.497 80.0511 256.52 80.2614 257.472C80.425 258.216 80.6354 258.994 80.7639 259.75C81.9909 259.68 83.1361 259.575 84.3515 259.471C84.5151 259.459 84.7605 259.424 84.9357 259.401C85.707 259.296 86.3848 259.157 87.1561 258.994C87.308 258.948 87.4832 258.832 87.6352 258.797C86.9457 257.937 86.2329 257.228 85.5317 256.369L85.52 256.357Z" fill="#1E251A"/>
</g>
<defs>
<clipPath id="clip0_381_266">
<rect width="522.344" height="162.654" fill="white" transform="translate(0.458984 148.227)"/>
</clipPath>
</defs>
</svg>
