<svg width="67" height="46" viewBox="0 0 67 46" fill="none" xmlns="http://www.w3.org/2000/svg">
<path fill-rule="evenodd" clip-rule="evenodd" d="M5.31876 15.6521C5.32544 15.6227 5.33212 15.5933 5.3388 15.564C5.37404 15.4091 5.40926 15.2543 5.44286 15.0992C5.51969 14.6435 5.57601 14.1979 5.60673 13.7371C5.62207 13.4042 5.62723 13.0713 5.61187 12.7385C5.58116 12.042 6.21615 11.4582 6.8921 11.4582C6.91111 11.4583 6.93055 11.4587 6.95023 11.4595C6.97405 11.4605 6.99819 11.4621 7.02226 11.4641C7.07454 11.4687 7.1264 11.4755 7.17375 11.4839C7.16862 11.3661 7.17886 11.2534 7.21472 11.1356C7.39094 10.466 8.03246 10.1132 8.68179 10.2037L8.66904 10.2036C9.80215 10.3726 10.9452 10.4852 12.0849 10.5974C12.3616 10.6246 12.6381 10.6519 12.9143 10.6799C14.2406 10.8182 15.5618 10.9615 16.883 11.1356C19.6893 11.5043 22.4802 11.9396 25.2813 12.3851L25.2988 12.3878L25.3131 12.3901C27.9142 12.7981 30.5152 13.2061 33.1214 13.5988C34.3965 13.7883 35.6665 13.9829 36.9416 14.1826C37.5305 14.2799 38.1245 14.3721 38.7135 14.4591C38.7917 14.4695 38.8701 14.4807 38.9483 14.4922C39.0057 14.5007 39.0632 14.5094 39.1206 14.518C39.1897 14.5284 39.2588 14.5389 39.3279 14.549C39.3945 14.5587 39.4611 14.5681 39.5277 14.5769L39.5274 14.5758C39.5173 14.5454 39.5071 14.5151 39.5021 14.4796C39.3075 13.8549 39.159 13.2147 39.0566 12.5695C38.9423 11.8649 38.89 11.1514 38.8379 10.4414L38.8261 10.2805C38.7339 9.09241 38.6059 7.9197 38.4369 6.73677C38.273 5.56921 38.145 4.39651 38.0477 3.22383C38.045 3.19098 38.042 3.15788 38.0389 3.1246C38.034 3.07243 38.0286 3.01982 38.0232 2.96687C37.9737 2.47933 37.9213 1.96276 38.1604 1.52368C38.4165 1.06279 38.9388 0.796525 39.456 0.8631C39.8064 0.909194 40.0863 1.10895 40.3666 1.30902L40.3681 1.31009C40.3986 1.33185 40.4291 1.35361 40.4597 1.37517C41.0538 1.76024 41.6503 2.14153 42.2468 2.52276C43.9586 3.61694 45.6697 4.71073 47.3217 5.89183L47.3273 5.89595C48.5698 6.79075 49.8123 7.68555 51.0344 8.6008L54.2913 11.0281C54.5492 11.2179 54.807 11.408 55.0647 11.598L55.0792 11.6088C56.5611 12.7019 58.0417 13.794 59.5556 14.8381C60.1957 15.2426 60.8461 15.6267 61.5118 15.9749C62.1314 16.2668 62.7664 16.5126 63.4065 16.7328C63.4106 16.7342 63.4144 16.7352 63.4179 16.7361C63.4274 16.7387 63.4349 16.7407 63.4424 16.7482L63.4436 16.7487C63.4533 16.7518 63.4629 16.755 63.4712 16.7568C63.4757 16.7578 63.4798 16.7584 63.4833 16.7584L63.5294 16.7738L63.5243 16.7686C63.5844 16.7879 63.6446 16.8071 63.705 16.8263L63.7061 16.8266C64.1756 16.976 64.6528 17.128 65.1015 17.332C65.6034 17.5573 65.9874 17.9414 66.0591 18.5047C66.1564 19.2267 65.6392 19.8566 65.1732 20.3328C64.6234 20.8923 63.9372 21.3337 63.2816 21.7554L63.1607 21.8332C62.824 22.05 62.4831 22.2544 62.1381 22.4612L62.0239 22.5297C61.5064 22.8419 60.9851 23.1581 60.4565 23.4612C60.5984 23.6016 60.7409 23.7339 60.8921 23.8662C61.1277 24.0608 61.3633 24.2554 61.5937 24.4551C61.9214 24.7521 62.0956 25.1823 62.0392 25.6278C61.9829 26.0528 61.7268 26.3909 61.3684 26.6162C61.3356 26.6373 61.3022 26.6549 61.2683 26.6702C61.2389 26.6835 61.2091 26.6951 61.1791 26.7058C61.1518 26.7156 61.1244 26.7248 61.097 26.7339C60.8661 26.9452 60.6351 27.1376 60.3996 27.3338L60.3698 27.3587C59.7707 27.8452 59.0998 28.2497 58.4392 28.6338C57.9581 28.9114 57.4637 29.1581 56.9695 29.4047C56.5432 29.6174 56.117 29.8301 55.6995 30.0625C54.9188 30.5039 54.1591 30.9873 53.3972 31.4722C53.2397 31.5725 53.082 31.6729 52.924 31.7729C52.4754 32.0825 52.0561 32.4252 51.636 32.7685L51.6351 32.7692C51.3745 32.9823 51.1134 33.1956 50.8449 33.4014C50.0921 33.98 49.2984 34.487 48.4841 34.9837C47.7006 35.46 46.9172 35.926 46.1285 36.3869C45.8198 36.5676 45.5096 36.7442 45.1996 36.9207L45.1987 36.9212C44.6658 37.2246 44.1333 37.5278 43.609 37.8515C43.0099 38.256 42.4415 38.6913 41.8884 39.1624C41.8302 39.2157 41.7714 39.2689 41.7121 39.3223C41.679 39.7341 41.4404 40.1219 41.0639 40.3556L40.3076 40.8306C38.9867 41.6599 37.665 42.4897 36.3578 43.3411C35.7945 43.72 35.2517 44.1194 34.7191 44.5394L34.6864 44.5647L34.6316 44.6074L34.5466 44.6742C34.2417 44.9138 33.9249 45.1628 33.5721 45.3177C32.9217 45.6096 32.1535 45.4356 31.7951 44.7903C31.5719 44.3986 31.5601 43.8531 31.5503 43.4005L31.5493 43.3564C31.539 42.998 31.5595 42.6497 31.5851 42.2964C31.6041 42.0038 31.6683 41.7112 31.7315 41.4228C31.752 41.3291 31.7724 41.236 31.7911 41.1434C31.8896 40.6128 31.9871 40.0818 32.0716 39.5465C32.1543 38.9951 32.204 38.4437 32.2541 37.8886L32.2713 37.6978C32.3225 37.1038 32.3942 36.5098 32.4762 35.9157C32.4929 35.8007 32.5103 35.6858 32.528 35.571L32.5624 35.3503C32.6374 34.8697 32.7122 34.3904 32.7527 33.9084C32.3315 33.854 31.9058 33.8312 31.483 33.8085L31.4806 33.8085C31.2669 33.797 31.0539 33.7855 30.8426 33.7701C30.7069 33.7618 30.5713 33.7541 30.4356 33.7467C30.2777 33.738 30.1197 33.7298 29.9618 33.7215L29.9567 33.7213C29.6631 33.706 29.3695 33.6907 29.0759 33.6728C28.4185 33.6401 27.7738 33.5608 27.1264 33.4812L26.9353 33.4577C26.3711 33.3862 25.81 33.3362 25.2496 33.2863C25.0877 33.2719 24.9259 33.2575 24.7641 33.2426C24.1125 33.1808 23.4564 33.1234 22.8 33.0827L22.813 33.0839C21.9569 33.0307 21.102 32.9877 20.2476 32.9449C19.2929 32.8969 18.3389 32.849 17.3848 32.7869C16.5092 32.7305 15.6335 32.6537 14.7629 32.5718C14.4482 32.5405 14.1342 32.5059 13.8204 32.4713C13.2609 32.4097 12.702 32.3481 12.141 32.3055C11.168 32.2543 10.1951 32.2031 9.22209 32.0699C8.61628 31.987 8.01241 31.8744 7.40805 31.7616L7.40662 31.7613L7.40416 31.7609C7.03922 31.6928 6.67412 31.6246 6.3083 31.563C5.49178 31.4216 4.67119 31.3086 3.84659 31.1951L3.84441 31.1948L3.54301 31.1533C3.47113 31.1435 3.39921 31.1347 3.32766 31.126L3.32687 31.1259L3.32511 31.1257C3.17328 31.1072 3.02292 31.0888 2.87729 31.0611C2.55979 31.0099 2.26277 30.8665 2.04257 30.6463C1.96064 30.5644 1.88895 30.4722 1.82749 30.3698C1.56696 29.9082 1.6654 29.4139 1.76239 28.9271C1.77408 28.8684 1.78575 28.8099 1.79676 28.7516C1.78651 28.8028 1.77631 28.854 1.76094 28.9103C1.8275 28.557 1.88894 28.1985 1.91967 27.8401L1.91967 27.6967C1.89405 27.4458 1.8531 27.1897 1.80702 26.9388C1.71484 26.5137 1.61114 26.0925 1.50745 25.6713C1.40375 25.2502 1.30005 24.829 1.20788 24.4039C0.982567 23.39 0.890375 22.3658 0.828931 21.3314L0.828927 21.3416C0.797472 20.8812 0.796339 20.4224 0.795229 19.9652L0.795253 19.9643C0.794385 19.6031 0.793518 19.2428 0.777703 18.8836C0.612099 18.4625 0.695672 17.9671 0.988049 17.5912C1.0712 17.4914 1.16869 17.4056 1.27515 17.3338C1.2749 17.3332 1.27468 17.3326 1.27443 17.3319C1.05935 16.7379 1.25909 16.0568 1.82751 15.7342C2.24743 15.4986 2.73903 15.4986 3.20503 15.514C3.46107 15.5242 3.71199 15.5294 3.9629 15.5447C4.41484 15.5718 4.86682 15.6046 5.31876 15.6521ZM5.20732 20.1484C5.26365 20.5223 5.32507 20.891 5.39165 21.2648C5.50432 21.9305 5.67331 22.7448 6.15469 23.2671L6.21102 23.3234C6.51826 23.6 6.84088 23.7894 7.24542 23.8867C7.53218 23.9482 7.83434 23.9328 8.12623 23.9174C8.40083 23.8971 8.67041 23.8717 8.93992 23.8463L8.94557 23.8458C9.16063 23.8355 9.3706 23.8304 9.58569 23.8406C9.90253 23.8684 10.2179 23.9068 10.5325 23.9451C10.7974 23.9773 11.0624 24.0095 11.3268 24.0352C11.8925 24.0875 12.4583 24.1175 13.0209 24.1473L13.3188 24.1632C13.8514 24.2042 14.3738 24.2554 14.9063 24.3271C15.0518 24.3463 15.1969 24.3667 15.3419 24.387L15.3539 24.3886C15.746 24.4436 16.1377 24.4986 16.5348 24.532C17.3844 24.6037 18.2342 24.6365 19.0859 24.6693L19.0889 24.6694L19.09 24.6694C19.2422 24.6753 19.3945 24.6812 19.5468 24.6873C19.6966 24.6932 19.8465 24.6994 19.9965 24.7061C20.4933 24.7419 20.9797 24.788 21.4764 24.8648C21.6869 24.8974 21.8956 24.9318 22.1035 24.966L22.1065 24.9665L22.1083 24.9668C22.3896 25.0132 22.6696 25.0593 22.9513 25.1004C24.0216 25.2591 25.0867 25.382 26.1621 25.4844C27.527 25.6061 28.8942 25.6542 30.2606 25.7022C30.9653 25.727 31.6698 25.7517 32.3738 25.7866C33.6079 25.9044 34.8267 26.0785 36.0403 26.3089L36.7584 26.4432C37.2375 26.5331 37.7166 26.623 38.1911 26.7083C38.5302 26.7678 38.8709 26.8014 39.2133 26.8351C39.4606 26.8595 39.7088 26.8839 39.9579 26.9183L40.0347 27.0258C40.025 27.0066 40.0143 26.9884 40.0034 26.9714C39.9912 26.9523 39.9789 26.9346 39.9681 26.9183C40.0193 26.99 40.0654 27.0566 40.1012 27.1334C40.1114 27.1589 40.1229 27.1857 40.1344 27.2125L40.1348 27.2134L40.1509 27.2513C40.1568 27.2651 40.1625 27.2788 40.1678 27.2921C40.1715 27.3104 40.1758 27.3281 40.1803 27.3455L40.1853 27.3647L40.1857 27.3664L40.1939 27.3978C40.1974 27.4118 40.2007 27.426 40.2036 27.4406C40.2056 27.4546 40.2076 27.4701 40.2096 27.4866C40.2127 27.5124 40.2159 27.5405 40.219 27.5686V27.7018C40.1804 28.1578 40.098 28.6167 40.0159 29.0741C40.0041 29.1397 39.9923 29.2053 39.9807 29.2709C39.9659 29.3539 39.9514 29.4369 39.9374 29.5197C39.8503 30.0676 39.7684 30.6105 39.6813 31.1584C39.6409 31.4105 39.5969 31.6633 39.5528 31.9165L39.5526 31.9175C39.4794 32.3379 39.4059 32.7595 39.3485 33.1812C39.2972 33.5397 39.2563 33.8981 39.2665 34.2566C39.2768 34.5126 39.3382 34.7482 39.4201 34.994C39.5891 35.501 40.1832 35.8799 40.7004 35.885C41.2432 35.885 41.6375 35.6034 42.0523 35.291L42.6514 34.8455C42.9512 34.6154 43.251 34.3854 43.5492 34.1569C43.6891 34.0497 43.8286 33.9429 43.9675 33.8367C44.8637 33.1556 45.7752 32.5103 46.7123 31.8805C47.757 31.2147 48.8068 30.5542 49.8617 29.8884C50.7061 29.3576 51.5443 28.8079 52.381 28.259C52.6099 28.1089 52.8386 27.9589 53.0674 27.8093C54.7657 26.7034 56.5272 25.6989 58.2895 24.6976C58.3475 24.8971 58.4539 25.0843 58.6082 25.2386L58.7465 25.3769C58.6946 25.4162 58.6431 25.4551 58.5917 25.4936L58.5149 25.5509C58.4245 25.618 58.3335 25.6844 58.2395 25.7507C57.4509 26.2628 56.6418 26.7134 55.802 27.1334C54.9007 27.584 54.025 28.05 53.1749 28.5928C53.0842 28.6501 52.9933 28.7071 52.9023 28.7639C52.8188 28.816 52.7352 28.8681 52.6517 28.9201C51.9632 29.3488 51.2751 29.7773 50.6298 30.2674C50.3473 30.4785 50.077 30.7061 49.8074 30.9332C49.652 31.0641 49.4967 31.1949 49.3394 31.3223C48.9809 31.6193 48.5968 31.8805 48.2179 32.1365C46.7533 33.0685 45.2477 33.9391 43.7422 34.7994C42.8819 35.2807 42.0523 35.7826 41.2585 36.3715C40.6903 36.8 40.1601 37.2752 39.6296 37.7507L39.4714 37.8924C39.2921 37.9487 39.1283 38.0511 38.99 38.1894C38.803 38.3764 38.6788 38.6113 38.6205 38.8661C37.7301 39.4273 36.8404 39.9926 35.9533 40.5604C35.4002 40.9086 34.842 41.262 34.3095 41.6409C34.3155 41.6109 34.3213 41.581 34.3271 41.5513C34.3377 41.4961 34.3479 41.4414 34.3579 41.3869C34.3745 41.2963 34.3903 41.2065 34.4062 41.1166L34.4068 41.1135C34.4385 40.9214 34.4725 40.7297 34.5065 40.5382C34.5876 40.0811 34.6686 39.6243 34.7191 39.1624C34.7499 38.8654 34.7755 38.5658 34.8011 38.2662C34.8267 37.9666 34.8523 37.6671 34.883 37.3701C34.9547 36.7146 35.0469 36.0591 35.1442 35.4088C35.1592 35.3036 35.1755 35.1981 35.1919 35.0923C35.2314 34.8374 35.271 34.5816 35.2927 34.3283C35.349 33.7496 35.4156 33.048 35.093 32.5206C34.8215 32.0853 34.4477 31.732 33.9612 31.563C33.5055 31.4042 33.0343 31.3633 32.5581 31.3274C31.3445 31.2403 30.1308 31.1738 28.9172 31.1072C28.4522 31.0727 27.9937 31.0158 27.5353 30.9588C27.1758 30.9142 26.8164 30.8696 26.454 30.8358C26.2182 30.8131 25.9825 30.7896 25.7466 30.766L25.7358 30.7649L25.7328 30.7646C25.1228 30.7038 24.512 30.6428 23.8986 30.5951C22.9108 30.5178 21.9196 30.4715 20.9279 30.4253C20.2659 30.3944 19.6038 30.3635 18.9422 30.3233L18.928 30.3224L18.8863 30.3196L18.8658 30.3186L18.6294 30.3023L18.6271 30.3021L18.6254 30.3019C17.3711 30.2174 16.1212 30.1332 14.8756 30.0011C14.6092 29.9746 14.3429 29.9434 14.0762 29.912L14.0751 29.9118C13.6705 29.8644 13.2651 29.8168 12.858 29.786C12.1666 29.7297 11.4804 29.6887 10.7891 29.6529C10.1285 29.5863 9.47301 29.5146 8.81755 29.4019C8.69062 29.3808 8.56391 29.3585 8.43733 29.3356C8.25748 29.3031 8.0779 29.2693 7.89832 29.2355C7.7346 29.2047 7.57087 29.1739 7.40695 29.144C7.26454 29.1181 7.12197 29.0929 6.97913 29.0691C6.2878 28.9513 5.59651 28.8437 4.90005 28.7413C4.77932 28.7187 4.65581 28.7044 4.53358 28.6902L4.46947 28.6828L4.40333 28.6748C4.41195 28.626 4.41895 28.5756 4.42522 28.5264L4.43346 28.46L4.43917 28.4136C4.51598 27.7325 4.44428 27.077 4.30603 26.4062C4.19969 25.9024 4.0765 25.4032 3.9532 24.9036C3.85091 24.4891 3.74854 24.0743 3.65567 23.6563L3.63565 23.54L3.63482 23.5356C3.55432 23.0681 3.47317 22.5966 3.43546 22.1251C3.42009 21.8025 3.39962 21.485 3.37401 21.1624L3.37913 21.1675L3.37915 21.1265C3.37914 20.9167 3.37402 20.707 3.3689 20.4972L3.3688 20.4963C3.3637 20.2865 3.35859 20.0767 3.35864 19.8668C3.35827 19.8185 3.35836 19.7697 3.35871 19.7205C3.35902 19.6793 3.35952 19.6378 3.36011 19.596L3.36172 19.4929C3.36926 19.0154 3.37714 18.5166 3.23192 18.0709C3.5716 18.0768 3.90808 18.0987 4.24456 18.1206C4.49668 18.1435 4.75086 18.1685 5.00445 18.1956C5.02225 18.8502 5.10875 19.5078 5.20732 20.1484ZM59.2944 17.6802C59.9243 18.0335 60.5644 18.3664 61.2352 18.648C61.6756 18.8324 62.1263 18.986 62.5718 19.1243C62.4547 19.2091 62.3408 19.2907 62.2225 19.3716C62.1902 19.391 62.1571 19.4127 62.1263 19.4367L62.1767 19.4028L62.2225 19.3716C62.2302 19.367 62.2378 19.3625 62.2454 19.3582L62.2697 19.3445C60.9836 20.1852 59.6492 20.9533 58.3164 21.7204L58.3152 21.7211C58.1465 21.8182 57.9779 21.9153 57.8093 22.0125C57.4051 22.245 57.0014 22.4761 56.5982 22.7069L56.5539 22.7322L56.536 22.7425C55.6373 23.2568 54.7417 23.7693 53.8509 24.2913C52.8972 24.8497 51.9723 25.4515 51.046 26.0541L50.5121 26.4011C49.2933 27.2 48.0591 27.9834 46.825 28.7567C45.683 29.4685 44.5462 30.1957 43.4657 30.9894C43.015 31.3172 42.5746 31.6551 42.1291 31.9983C42.1752 31.7371 42.2213 31.4861 42.2623 31.2301C42.3698 30.5183 42.4824 29.8014 42.6053 29.0947C42.6209 29.0022 42.638 28.9086 42.6552 28.8142L42.6557 28.8117C42.7232 28.4421 42.7927 28.0611 42.7846 27.6864C42.7692 26.9337 42.5951 26.227 42.1752 25.592C41.7553 24.9672 41.1664 24.5012 40.4085 24.3783C40.2238 24.3512 40.0392 24.3355 39.8553 24.3199C39.6924 24.3062 39.5301 24.2924 39.3689 24.2708C38.4207 24.1501 37.4795 23.9714 36.5373 23.7925L36.5354 23.7921C36.079 23.7054 35.6224 23.6187 35.1647 23.5385C33.8844 23.3132 32.5888 23.1954 31.2932 23.1596C29.9208 23.1186 28.5536 23.0622 27.1863 22.9854L26.8568 22.9553C26.1331 22.8892 25.4128 22.8234 24.6924 22.7345C24.0144 22.6553 23.3402 22.5495 22.6632 22.4433L22.661 22.443L22.3316 22.3914C21.5328 22.2583 20.7339 22.1558 19.9197 22.12C19.6685 22.11 19.4184 22.101 19.1687 22.0921L19.1646 22.0919C19.0189 22.0867 18.8734 22.0815 18.7279 22.0761C18.6085 22.0717 18.4891 22.0671 18.3697 22.0622C18.1223 22.0522 17.8744 22.0411 17.6255 22.0278C16.7495 21.9536 15.8878 21.8459 15.0174 21.737L14.9268 21.7257C14.1276 21.621 13.3196 21.5782 12.5151 21.5357H12.5142L12.512 21.5356L12.3305 21.526C11.8685 21.49 11.4085 21.4392 10.9494 21.3886C10.6909 21.3601 10.4328 21.3316 10.1746 21.3058C9.75468 21.2648 9.33988 21.2495 8.91997 21.2699C8.68642 21.2818 8.45594 21.3029 8.2285 21.3237L8.10695 21.3347L8.02892 21.3416C7.99306 21.2034 7.95724 21.0651 7.9265 20.9217C7.778 20.0563 7.63975 19.1908 7.57317 18.3152C7.56292 18.0694 7.56294 17.8133 7.57319 17.5675C7.59327 17.3624 7.62605 17.1636 7.659 16.9637L7.65926 16.9621C7.66818 16.908 7.67712 16.8538 7.68584 16.7994C7.84459 16.1285 7.99821 15.4628 8.09038 14.7869C8.17743 14.1263 8.2184 13.4503 8.18768 12.7846C8.55126 13.0253 9.01728 13.0611 9.41159 12.8921C9.56777 12.91 9.72391 12.9254 9.8801 12.9407C10.0363 12.9561 10.1925 12.9715 10.3487 12.9894C10.681 13.0241 11.0134 13.0585 11.3457 13.0929L11.3986 13.0984L11.4005 13.0987L11.4018 13.0988C13.7953 13.3466 16.1874 13.5942 18.5678 13.947C21.3894 14.372 24.2059 14.8124 27.0275 15.258C29.1617 15.5958 31.2958 15.9163 33.43 16.2368L33.4324 16.2372L35.5692 16.5587C36.0663 16.6336 36.5635 16.7127 37.0606 16.7919C37.8898 16.924 38.719 17.056 39.5482 17.1681C39.5877 17.1729 39.6274 17.1781 39.6673 17.1835C39.7156 17.19 39.7641 17.1967 39.8128 17.2035C40.1892 17.2559 40.5786 17.31 40.9513 17.2603C41.6017 17.1834 42.1598 16.697 42.3288 16.0671C42.4927 15.4526 42.3083 14.8483 42.124 14.2645C41.955 13.7166 41.7911 13.1738 41.6682 12.6105C41.5099 11.7441 41.4397 10.8709 41.3695 9.99644L41.3693 9.99361C41.3532 9.79395 41.3371 9.59424 41.32 9.39452C41.2535 8.53931 41.1612 7.68927 41.0383 6.83919C41.0084 6.61743 40.9771 6.39697 40.9459 6.17718L40.9456 6.17479L40.945 6.17146C40.87 5.64207 40.7955 5.11659 40.7414 4.58598C40.9206 4.69351 41.0947 4.80617 41.2688 4.91883C42.0421 5.41555 42.8153 5.92254 43.5835 6.42439C45.4987 7.73536 47.3831 9.06682 49.2369 10.4495C51.4594 12.1086 53.6972 13.7627 55.9351 15.4065C57.0207 16.2054 58.1217 17.0093 59.2944 17.6802Z" fill="#1E251A"/>
<path d="M0.942322 17.6495C0.957047 17.6295 0.972253 17.6102 0.988049 17.5912C1.01212 17.5603 1.03761 17.5301 1.06448 17.5009C1.04075 17.5247 1.01878 17.5501 0.997492 17.5762C0.982016 17.5953 0.96692 17.6147 0.951824 17.6341L0.942322 17.6495Z" fill="#1E251A"/>
<path d="M0.942322 17.6495C0.913688 17.6883 0.887093 17.7291 0.862858 17.7718C0.876162 17.7486 0.891875 17.7253 0.90807 17.7014C0.919497 17.6845 0.931121 17.6673 0.942322 17.6495Z" fill="#1E251A"/>
<path d="M8.68179 10.2037C8.6929 10.2053 8.70402 10.2069 8.71514 10.2087C8.70332 10.2048 8.69456 10.2039 8.68179 10.2037Z" fill="#1E251A"/>
</svg>
