<svg width="50" height="77" viewBox="0 0 50 77" fill="none" xmlns="http://www.w3.org/2000/svg">
<path fill-rule="evenodd" clip-rule="evenodd" d="M0.722656 18.6679L31.9087 49.7961H49.7227L0.722656 0.886963V18.6679ZM44.5265 31.2695C47.8593 27.937 49.7271 23.4219 49.7213 18.7145C49.7213 8.86857 41.7248 0.886963 31.8606 0.886963H14L19.2356 6.10122L44.5265 31.2695ZM13.5295 64.734C13.5295 66.3361 12.975 67.647 11.8777 68.6607L11.8718 68.6665C11.4165 69.0918 10.8621 69.4239 10.2258 69.6686L14.1949 76.5374H11.2998L7.6985 70.1696C7.63492 70.1715 7.57075 70.174 7.50598 70.1765C7.36856 70.1817 7.22844 70.1871 7.08563 70.1871H3.496V76.5316H0.945312V59.3217H7.08563C9.17521 59.3217 10.7745 59.811 11.8777 60.7956C12.975 61.7802 13.5295 63.1318 13.5295 64.734ZM7.0798 62.0191H3.50183L3.496 62.0133V67.4547H7.0798C8.53316 67.4547 9.5546 67.2042 10.1383 66.709C10.722 66.208 11.0138 65.5438 11.0138 64.7165C11.0138 63.8892 10.7045 63.2309 10.0799 62.7473C9.45538 62.2638 8.45728 62.0191 7.0798 62.0191ZM22.6853 59.3158H17.0703V76.5257H22.7028C25.201 76.5257 27.238 75.7917 28.814 74.3119C30.3899 72.8379 31.1779 70.8396 31.1779 68.3111V67.5246C31.1779 64.9961 30.3899 62.9978 28.814 61.5238C27.238 60.0498 25.1951 59.3099 22.6912 59.3099L22.6853 59.3158ZM28.598 68.3169C28.598 70.0472 28.0669 71.393 27.0046 72.366C25.9423 73.3389 24.5006 73.8166 22.6736 73.8166H19.621V62.0423H22.6736C24.4947 62.0423 25.9423 62.5259 27.0046 63.493C28.0669 64.4601 28.598 65.8059 28.598 67.5246V68.3111V68.3169ZM36.3841 61.2209C37.8491 59.712 39.7344 58.9604 42.0399 58.9604L42.0516 58.9546C44.3046 58.9546 45.9915 59.543 47.1063 60.7199C48.2211 61.8967 48.939 63.3765 49.2542 65.1709V65.3166H46.6744V65.1593C46.5051 64.5242 46.0557 63.796 45.3377 62.9862C44.6198 62.1764 43.5166 61.7685 42.0341 61.7685C40.4698 61.7685 39.2032 62.3511 38.2402 63.5105C37.2771 64.6699 36.7926 65.9807 36.7926 67.4489V68.3927C36.7926 70.1929 37.2713 71.5912 38.2402 72.5874C39.2091 73.5836 40.4056 74.0788 42.0458 74.0788C43.6859 74.0788 44.8591 73.6769 45.577 72.8787C46.2891 72.0747 46.6569 71.3465 46.6744 70.6823L46.6977 70.525H49.2484L49.2367 70.6823C49.1725 72.4651 48.5188 73.9449 47.2872 75.1217C46.0498 76.2986 44.3455 76.887 42.0399 76.887C39.7344 76.887 37.8491 76.1354 36.3841 74.6265C34.9132 73.1234 34.1836 71.0202 34.1836 68.3169V67.5188C34.1836 64.8272 34.919 62.724 36.3841 61.2209Z" fill="#F5F5F5"/>
</svg>
